<svg width="105" height="29" viewBox="0 0 105 29" fill="none" xmlns="http://www.w3.org/2000/svg">
<path d="M0.261617 0.747999C0.477617 1.084 0.921617 1.732 1.59362 2.692C2.28962 3.628 3.08162 4.72 3.96962 5.968C4.88162 7.216 5.84162 8.548 6.84962 9.964C7.85762 11.356 8.80562 12.676 9.69362 13.924C10.5816 15.148 11.3496 16.216 11.9976 17.128C12.6696 18.04 13.1136 18.64 13.3296 18.928C13.4016 18.808 13.6296 18.484 14.0136 17.956C14.3976 17.428 14.8656 16.768 15.4176 15.976C15.9936 15.184 16.6416 14.296 17.3616 13.312C18.0816 12.304 18.8136 11.284 19.5576 10.252C20.3256 9.196 21.0696 8.152 21.7896 7.12C22.5336 6.088 23.2176 5.152 23.8416 4.312C24.4656 3.448 24.9936 2.704 25.4256 2.08C25.8816 1.432 26.2056 0.987999 26.3976 0.747999V28H22.2216V13.384C22.2216 13.192 22.2336 12.988 22.2576 12.772C22.3056 12.556 22.3296 12.4 22.3296 12.304C22.1136 12.592 21.7656 13.084 21.2856 13.78C20.8296 14.452 20.2896 15.232 19.6656 16.12C19.0656 16.984 18.4296 17.908 17.7576 18.892C17.0856 19.852 16.4496 20.764 15.8496 21.628C15.2496 22.492 14.7216 23.26 14.2656 23.932C13.8096 24.58 13.4976 25.036 13.3296 25.3C13.1616 25.084 12.8256 24.64 12.3216 23.968C11.8416 23.272 11.2656 22.468 10.5936 21.556C9.94562 20.644 9.24962 19.672 8.50562 18.64C7.78562 17.608 7.11362 16.648 6.48962 15.76C5.86562 14.872 5.32562 14.116 4.86962 13.492C4.41362 12.844 4.14962 12.448 4.07762 12.304C4.07762 12.4 4.08962 12.556 4.11362 12.772C4.16162 12.988 4.18562 13.192 4.18562 13.384V28H0.261617V0.747999ZM44.5163 26.236C43.7963 26.884 42.9203 27.4 41.8883 27.784C40.8563 28.168 39.8003 28.36 38.7203 28.36C37.6163 28.36 36.5723 28.156 35.5883 27.748C34.6283 27.316 33.7883 26.752 33.0683 26.056C32.3483 25.336 31.7723 24.496 31.3403 23.536C30.9323 22.576 30.7283 21.556 30.7283 20.476C30.7283 19.396 30.9323 18.376 31.3403 17.416C31.7723 16.456 32.3483 15.616 33.0683 14.896C33.7883 14.176 34.6163 13.612 35.5523 13.204C36.5123 12.772 37.5323 12.556 38.6123 12.556C40.3163 12.556 41.7923 13.072 43.0403 14.104C44.3123 15.112 45.2243 16.444 45.7763 18.1C45.0323 18.364 44.1803 18.688 43.2203 19.072C42.2603 19.456 41.2643 19.864 40.2323 20.296C39.2003 20.704 38.1683 21.112 37.1363 21.52C36.1043 21.928 35.1443 22.3 34.2563 22.636C34.6643 23.452 35.2523 24.112 36.0203 24.616C36.8123 25.096 37.6883 25.336 38.6483 25.336C39.2963 25.336 39.9443 25.216 40.5923 24.976C41.2643 24.736 41.8043 24.412 42.2123 24.004L44.5163 26.236ZM41.9243 17.38C41.6363 16.78 41.1803 16.336 40.5563 16.048C39.9323 15.736 39.2963 15.58 38.6483 15.58C37.9523 15.58 37.3043 15.712 36.7043 15.976C36.1283 16.24 35.6243 16.6 35.1923 17.056C34.7603 17.488 34.4123 17.992 34.1483 18.568C33.9083 19.144 33.7883 19.732 33.7883 20.332C33.7883 20.452 33.7883 20.536 33.7883 20.584C33.8123 20.632 33.8243 20.668 33.8243 20.692C34.4483 20.452 35.1203 20.188 35.8403 19.9C36.5843 19.588 37.3163 19.288 38.0363 19C38.7563 18.688 39.4523 18.4 40.1243 18.136C40.7963 17.848 41.3963 17.596 41.9243 17.38ZM47.4284 20.476C47.4284 19.3 47.6204 18.232 48.0044 17.272C48.4124 16.288 48.9644 15.448 49.6604 14.752C50.3564 14.056 51.1724 13.516 52.1084 13.132C53.0684 12.748 54.1004 12.556 55.2044 12.556C55.9484 12.556 56.6084 12.652 57.1844 12.844C57.7844 13.012 58.2884 13.228 58.6964 13.492C59.1284 13.732 59.4884 14.008 59.7764 14.32C60.0644 14.632 60.2804 14.908 60.4244 15.148V0.0279996H63.5204V28H60.4244V26.884C60.4244 26.74 60.4364 26.584 60.4604 26.416C60.4844 26.224 60.4964 26.068 60.4964 25.948C60.2564 26.236 59.9684 26.524 59.6324 26.812C59.3204 27.076 58.9484 27.328 58.5164 27.568C58.0844 27.808 57.5804 28 57.0044 28.144C56.4524 28.288 55.8164 28.36 55.0964 28.36C53.8964 28.36 52.8164 28.156 51.8564 27.748C50.9204 27.316 50.1164 26.752 49.4444 26.056C48.7964 25.336 48.2924 24.496 47.9324 23.536C47.5964 22.576 47.4284 21.556 47.4284 20.476ZM50.5244 20.44C50.5244 21.136 50.6444 21.784 50.8844 22.384C51.1484 22.984 51.4964 23.5 51.9284 23.932C52.3604 24.364 52.8764 24.712 53.4764 24.976C54.0764 25.216 54.7364 25.336 55.4564 25.336C56.1764 25.336 56.8364 25.216 57.4364 24.976C58.0604 24.712 58.5884 24.364 59.0204 23.932C59.4764 23.476 59.8244 22.96 60.0644 22.384C60.3044 21.784 60.4244 21.136 60.4244 20.44C60.4244 19.744 60.3044 19.108 60.0644 18.532C59.8244 17.932 59.4764 17.416 59.0204 16.984C58.5884 16.552 58.0604 16.216 57.4364 15.976C56.8364 15.712 56.1764 15.58 55.4564 15.58C54.7364 15.58 54.0764 15.712 53.4764 15.976C52.8764 16.216 52.3604 16.552 51.9284 16.984C51.4964 17.416 51.1484 17.932 50.8844 18.532C50.6444 19.108 50.5244 19.744 50.5244 20.44ZM67.4466 7.192C67.4466 6.616 67.6506 6.136 68.0586 5.752C68.4906 5.368 68.9466 5.176 69.4266 5.176C69.9066 5.176 70.3506 5.368 70.7586 5.752C71.1666 6.136 71.3706 6.616 71.3706 7.192C71.3706 7.768 71.1666 8.248 70.7586 8.632C70.3506 8.992 69.9066 9.172 69.4266 9.172C68.9466 9.172 68.4906 8.992 68.0586 8.632C67.6506 8.248 67.4466 7.768 67.4466 7.192ZM70.9026 28H67.8426V12.952H70.9026V28ZM85.3054 24.292C85.6414 24.7 85.9534 25.096 86.2414 25.48C86.5534 25.84 86.8654 26.224 87.1774 26.632C86.5054 27.16 85.7494 27.58 84.9094 27.892C84.0694 28.204 83.1574 28.36 82.1734 28.36C81.0694 28.36 80.0254 28.156 79.0414 27.748C78.0814 27.316 77.2414 26.74 76.5214 26.02C75.8014 25.3 75.2254 24.46 74.7934 23.5C74.3854 22.54 74.1814 21.52 74.1814 20.44C74.1814 19.36 74.3854 18.34 74.7934 17.38C75.2254 16.42 75.8014 15.592 76.5214 14.896C77.2414 14.176 78.0814 13.612 79.0414 13.204C80.0254 12.772 81.0694 12.556 82.1734 12.556C83.1814 12.556 84.1054 12.712 84.9454 13.024C85.8094 13.336 86.5894 13.756 87.2854 14.284L85.3054 16.624C84.8974 16.288 84.4294 16.036 83.9014 15.868C83.3734 15.676 82.7974 15.58 82.1734 15.58C81.4534 15.58 80.7934 15.712 80.1934 15.976C79.5934 16.216 79.0654 16.552 78.6094 16.984C78.1774 17.416 77.8414 17.932 77.6014 18.532C77.3614 19.108 77.2414 19.744 77.2414 20.44C77.2414 21.136 77.3614 21.784 77.6014 22.384C77.8414 22.96 78.1774 23.476 78.6094 23.932C79.0654 24.364 79.5934 24.712 80.1934 24.976C80.7934 25.216 81.4534 25.336 82.1734 25.336C82.7974 25.336 83.3734 25.252 83.9014 25.084C84.4294 24.892 84.8974 24.628 85.3054 24.292ZM88.6306 20.44C88.6306 19.36 88.8346 18.34 89.2426 17.38C89.6746 16.42 90.2506 15.592 90.9706 14.896C91.6906 14.176 92.5306 13.612 93.4906 13.204C94.4746 12.772 95.5306 12.556 96.6586 12.556C97.7866 12.556 98.8306 12.772 99.7906 13.204C100.775 13.612 101.615 14.176 102.311 14.896C103.031 15.592 103.583 16.42 103.967 17.38C104.375 18.34 104.579 19.36 104.579 20.44C104.579 21.52 104.375 22.54 103.967 23.5C103.583 24.46 103.031 25.3 102.311 26.02C101.615 26.74 100.775 27.316 99.7906 27.748C98.8306 28.156 97.7746 28.36 96.6226 28.36C95.5186 28.36 94.4746 28.168 93.4906 27.784C92.5306 27.4 91.6906 26.86 90.9706 26.164C90.2506 25.468 89.6746 24.64 89.2426 23.68C88.8346 22.696 88.6306 21.616 88.6306 20.44ZM91.6906 20.476C91.6906 21.148 91.8106 21.784 92.0506 22.384C92.3146 22.96 92.6626 23.476 93.0946 23.932C93.5506 24.364 94.0666 24.712 94.6426 24.976C95.2426 25.216 95.8786 25.336 96.5506 25.336C97.2226 25.336 97.8586 25.216 98.4586 24.976C99.0586 24.712 99.5746 24.364 100.007 23.932C100.463 23.476 100.823 22.96 101.087 22.384C101.351 21.784 101.483 21.148 101.483 20.476C101.483 19.804 101.351 19.168 101.087 18.568C100.823 17.968 100.463 17.452 100.007 17.02C99.5746 16.564 99.0586 16.216 98.4586 15.976C97.8586 15.712 97.2226 15.58 96.5506 15.58C95.8786 15.58 95.2426 15.712 94.6426 15.976C94.0666 16.216 93.5506 16.564 93.0946 17.02C92.6626 17.452 92.3146 17.968 92.0506 18.568C91.8106 19.168 91.6906 19.804 91.6906 20.476Z" fill="white"/>
</svg>
